<svg width="369" height="246" viewBox="0 0 369 246" fill="none" xmlns="http://www.w3.org/2000/svg">
<g clip-path="url(#clip0)">
<path opacity="0.1" d="M129.439 241.235C164.988 241.235 193.806 236.584 193.806 230.846C193.806 225.109 164.988 220.457 129.439 220.457C93.8903 220.457 65.0723 225.109 65.0723 230.846C65.0723 236.584 93.8903 241.235 129.439 241.235Z" fill="#6C63FF"/>
<path opacity="0.1" d="M214.392 34.6918C190.736 33.9942 168.206 27.4855 146.691 20.3664C125.177 13.2474 103.868 5.36222 80.7785 1.59093C65.9277 -0.835037 48.9423 -1.18071 36.979 5.59579C25.4617 12.1356 21.7408 23.3934 19.7415 33.8478C18.2355 41.7143 17.351 49.9949 21.474 57.36C24.3396 62.4735 29.4202 66.7711 32.9365 71.6698C45.1702 88.7107 36.5222 109.725 23.2687 126.364C17.0549 134.169 9.83605 141.624 5.03687 149.923C0.237682 158.223 -1.98098 167.765 2.21876 176.254C6.3783 184.662 16.2947 190.965 27.0371 195.403C48.8546 204.419 74.5538 206.997 99.6316 208.461C155.127 211.694 210.916 210.295 266.558 208.891C287.151 208.374 307.831 207.848 328.088 205.135C339.339 203.628 350.951 201.236 359.12 195.462C369.486 188.135 372.056 175.728 365.107 166.541C353.455 151.125 321.246 147.298 313.091 130.759C308.61 121.653 313.212 111.513 319.729 103.07C333.706 84.955 357.132 69.0632 358.364 48.36C359.212 34.1405 347.95 19.8993 330.537 13.1695C312.287 6.11586 286.975 7.00341 273.517 18.6785C259.646 30.6869 235.281 35.3115 214.392 34.6918Z" fill="#6C63FF"/>
<path d="M195.593 112.653L184.398 106.222L190.045 99.0596L160.475 97.0509L149.849 104.052L136.548 97.6987L125.455 98.8354L125.323 96.344C125.186 93.7468 124.88 91.158 124.406 88.5897C124.454 87.8111 124.486 86.9173 124.483 85.9457C124.483 81.8505 123.832 76.4225 120.974 72.8038L121.632 67.765L116.295 62.393C117.152 60.9385 118.129 59.5378 119.219 58.2013C119.402 57.9771 119.585 57.7591 119.782 57.5473C126.709 57.1207 132.173 52.2687 132.173 46.3362C132.173 46.0621 132.173 45.7881 132.137 45.5172C132.137 45.4082 132.111 45.296 132.096 45.187C132.773 45.4985 133.456 45.8099 134.14 46.1213C134.268 46.277 134.414 46.4327 134.575 46.6165L134.607 46.6507L134.812 46.8656L134.878 46.931C134.951 47.0057 135.028 47.0774 135.105 47.1521L135.156 47.2019C135.349 47.3857 135.554 47.5725 135.773 47.7563C135.8 47.7744 135.824 47.7941 135.847 47.8154L136.121 48.0334L136.197 48.0926C136.431 48.2701 136.68 48.4414 136.928 48.6033L137.009 48.6531L137.323 48.8369L137.426 48.8929C137.546 48.9552 137.67 49.0206 137.791 49.0798L137.835 49.1016C137.978 49.167 138.124 49.2293 138.27 49.2884L138.343 49.3134C138.467 49.359 138.589 49.4026 138.709 49.4442L138.822 49.4784C138.95 49.5158 139.074 49.55 139.206 49.5812L139.286 49.5999C139.447 49.6341 139.608 49.6622 139.772 49.684H139.79C139.945 49.7053 140.102 49.7188 140.258 49.7244H140.364C140.504 49.7307 140.645 49.7307 140.785 49.7244H140.876C141.051 49.7158 141.226 49.6982 141.399 49.6715C142.217 49.5799 143.002 49.3399 143.701 48.9677C143.88 48.8662 144.038 48.7411 144.169 48.5971C144.9 47.7812 144.096 46.8874 144.096 46.8874C143.811 46.3082 141.962 45.9002 141.962 45.9002C141.962 45.9002 136.113 43.8199 136.113 42.1632C136.113 40.5064 134.651 31.9112 119.559 29.9461C119.559 29.9461 109.742 29.4759 106.982 33.9541L106.924 34.4773C106.112 34.9102 105.44 35.779 104.639 36.0344C104.293 36.0977 103.96 36.2026 103.649 36.3458V36.2867C103.556 36.3555 103.48 36.4391 103.426 36.5327C103.254 36.8242 103.151 37.1416 103.122 37.4669C103.04 37.8644 102.878 38.2468 102.643 38.5974C102.578 38.697 102.505 38.7928 102.424 38.8839V38.8839L102.362 38.968C102.786 38.9962 103.212 38.9374 103.605 38.7967C103.543 39.2231 103.42 39.6414 103.239 40.0424C103.472 40.0488 103.701 39.9982 103.901 39.8966C104.1 39.795 104.261 39.6467 104.365 39.4694V39.4445L104.412 39.3884C104.504 39.2442 104.58 39.0931 104.639 38.9368L104.599 38.9742C104.672 38.7718 104.738 38.5663 104.818 38.3669C104.855 38.2547 104.916 38.1491 104.997 38.0555C105.095 37.9717 105.214 37.9086 105.346 37.8713C105.477 37.834 105.617 37.8235 105.754 37.8406L105.604 40.5407H105.67C105.582 40.7371 105.474 40.9267 105.348 41.1074C104.829 41.8237 103.886 42.3126 103.539 43.0974C103.389 43.4759 103.332 43.8765 103.371 44.2746C103.371 44.5081 103.404 44.7448 103.426 44.9784V44.9597C103.477 45.5825 103.491 46.1742 103.097 46.6756C102.826 47.0182 102.391 47.2767 102.241 47.6659C102.2 47.7744 102.181 47.8883 102.186 48.0023C102.216 48.3436 102.299 48.6799 102.435 49.0019C102.437 48.9958 102.437 48.9894 102.435 48.9833C102.526 49.2202 102.548 49.4726 102.497 49.7182C102.333 50.341 101.444 50.8611 101.488 51.4559C101.486 51.5342 101.499 51.6122 101.529 51.6864C101.699 51.9769 101.995 52.2 102.355 52.3092C102.918 52.5823 103.565 52.7038 104.211 52.658C104.454 52.6207 104.688 52.5525 104.906 52.4556C104.65 52.957 104.387 53.4521 104.12 53.9224C104.08 53.9971 104.036 54.0719 103.992 54.1466C103.992 54.1466 101.733 52.8604 100.45 55.4826C100.076 56.0275 99.8079 56.6207 99.6571 57.239C99.5929 57.4863 99.5023 57.7281 99.3867 57.9615C98.8171 58.783 97.9646 59.4354 96.945 59.83C94.3279 60.8515 83.7573 72.0844 83.5709 74.9931C83.4794 76.1285 83.2541 77.2532 82.8984 78.3502C82.0662 80.9335 81.8524 83.6331 82.2697 86.2883C82.4003 87.1464 82.6167 87.9934 82.9166 88.8201C84.0387 91.7256 84.7881 97.1475 84.7881 97.1475L86.0016 106.559C85.9565 107.858 86.0225 109.157 86.1989 110.448C84.9598 111.653 79.9852 116.677 81.8859 118.044C83.3479 119.121 85.9065 118.944 87.343 118.723C86.1331 121.273 84.2288 125.708 83.9766 128.753C83.6111 133.26 84.6016 139.23 86.1697 141.522C87.7378 143.814 92.9646 149.693 92.9646 149.693C92.9646 149.693 92.7197 157.759 94.5875 160.69C96.4552 163.62 97.2082 169.699 97.2082 169.699C97.2082 169.699 98.9517 174.831 98.0781 176.718C97.2045 178.606 99.6973 180.175 97.0803 181.43C94.4632 182.685 91.1151 210.971 91.1151 210.971C91.1151 210.971 89.7663 229.51 91.1151 230.454C91.1873 230.499 91.2644 230.537 91.3454 230.569V236.798C91.3454 236.798 90.4096 238.106 94.2146 238.37C96.8207 238.548 104.208 238.949 108.59 239.183L111.986 239.364C111.986 239.364 120.027 240.728 123.58 239.364C127.133 238 133.431 238.031 132.495 234.428C132.371 233.937 132.205 233.455 131.998 232.986C130.971 230.75 129.227 230.494 126.014 229.872C125.828 229.837 125.649 229.806 125.484 229.781C122.1 229.28 120.988 230.622 119.091 228.875C117.443 227.365 112.194 225.674 110.407 225.138C110.451 225.026 110.506 224.917 110.549 224.802C110.043 224.728 109.573 224.533 109.193 224.238L114.036 224.5L116.92 224.652C116.92 224.652 123.755 225.814 126.789 224.652C129.823 223.491 135.159 223.522 134.363 220.46C134.258 220.043 134.117 219.633 133.942 219.233C133.069 217.334 131.585 217.125 128.854 216.599C128.697 216.571 128.551 216.543 128.405 216.521C125.528 216.094 124.585 217.234 122.973 215.752C121.592 214.487 117.231 213.07 115.663 212.588C115.663 211.896 114.566 210.912 113.876 209.925C113.064 208.773 114.563 204.74 114.563 204.74L115.418 188.007C115.744 187.884 116.088 187.8 116.441 187.758C116.441 187.758 120.309 184.613 119.435 181.262C119.257 180.249 119.164 179.226 119.157 178.201C120.429 177.195 122.18 175.709 122.677 174.794C123.489 173.302 122.677 166.074 122.677 166.074V138.436L129.147 138.993L135.017 139.507L136.804 139.663L142.674 140.167L156.165 141.329L168.322 139.367L173.582 138.52L184.398 136.776V114.229L195.593 112.653ZM106.551 37.9403L105.798 37.8718C106.046 37.8811 106.309 37.9216 106.551 37.9403Z" fill="url(#paint0_linear)"/>
<path d="M169.353 127.293C165.698 131.749 152.558 129.389 152.558 129.389L142.375 121.27L141.004 120.171L143.303 116.01C143.303 116.01 144.034 116.181 145.288 116.487C151.871 118.115 172.438 123.547 169.353 127.293Z" fill="#EFB7B9"/>
<path d="M110.356 69.5681C110.356 69.5681 100.969 73.1152 101.43 81.8256C101.761 87.4373 102.479 93.0275 103.579 98.5676C103.579 98.5676 101.66 111.675 109.65 115.054C117.64 118.433 125.035 121.211 125.035 121.211C125.035 121.211 137.535 122.357 139.089 122.83C140.642 123.304 145.496 116.066 144.601 114.939C143.705 113.812 132.232 111.448 130.77 109.567C129.308 107.686 125.927 106.524 125.927 106.524C125.927 106.524 122.436 104.724 122.198 103.099C121.961 101.473 122.882 100.262 123.116 99.5485C123.35 98.8354 123.942 91.9499 123.942 91.9499C123.942 91.9499 127.882 67.4411 110.356 69.5681Z" fill="#DCE6F2"/>
<path d="M104.953 36.8752C104.596 36.9348 104.253 37.0476 103.941 37.2085C103.575 37.4669 103.575 37.9092 103.484 38.2953C103.377 38.8325 103.127 39.3417 102.753 39.7839C103.169 39.8099 103.586 39.7512 103.97 39.6126C103.908 40.0389 103.785 40.4571 103.605 40.8583C103.832 40.8632 104.057 40.8121 104.251 40.711C104.446 40.6099 104.602 40.4632 104.701 40.2884C104.895 39.9375 105.048 39.5714 105.158 39.1953C105.192 39.0828 105.252 38.9771 105.334 38.8839C105.67 38.5445 106.295 38.697 106.814 38.7406C107.246 38.7717 107.68 38.7037 108.07 38.5438C108.461 38.3839 108.795 38.1379 109.036 37.8313C109.588 37.1181 109.621 35.2932 108.305 35.1002C106.931 34.9071 106.076 36.5202 104.953 36.8752Z" fill="#965D7B"/>
<path d="M115.955 62.5954L121.529 68.3069L120.802 74.0713L114.066 65.0868L115.955 62.5954Z" fill="#DCE6F2"/>
<path d="M124.421 54.8629C122.535 55.3238 120.733 56.9058 119.165 58.8272C118.105 60.153 117.157 61.5413 116.328 62.9816C115.813 63.8598 115.36 64.7037 114.983 65.4387L114.72 65.9619C114.084 67.2418 113.729 68.0982 113.729 68.0982C113.729 68.0982 99.2916 58.849 101.576 58.2262C102.344 58.0175 103.352 56.6162 104.35 54.8504L104.475 54.6262C105.107 53.4926 105.728 52.2282 106.28 51.0386C107.41 48.594 108.247 46.4701 108.247 46.4701C108.247 46.4701 130.177 53.4615 124.421 54.8629Z" fill="#EFB7B9"/>
<path d="M126.599 223.818C123.646 224.967 116.968 223.818 116.968 223.818L114.153 223.668C110.498 223.469 104.38 223.132 102.216 222.983C99.0577 222.762 99.8326 221.659 99.8326 221.659V214.998L115.155 211.691C115.155 211.691 121.211 213.457 122.871 214.998C124.446 216.468 125.367 215.338 128.178 215.761C128.317 215.783 128.463 215.808 128.617 215.839C131.285 216.359 132.732 216.565 133.588 218.449C133.76 218.844 133.898 219.25 134.001 219.663C134.79 222.696 129.549 222.675 126.599 223.818Z" fill="#A36468"/>
<path d="M123.478 238.392C120.005 239.744 112.147 238.392 112.147 238.392L108.839 238.227C104.555 237.993 97.3398 237.604 94.7922 237.42C91.0749 237.159 91.9887 235.863 91.9887 235.863V228.012L110.019 224.12C110.019 224.12 117.147 226.197 119.099 228.012C120.952 229.741 122.023 228.411 125.345 228.909C125.51 228.934 125.682 228.965 125.861 229C129.001 229.622 130.704 229.856 131.709 232.073C131.912 232.539 132.075 233.017 132.195 233.503C133.102 237.072 126.95 237.044 123.478 238.392Z" fill="#A36468"/>
<path d="M131.822 47.0774C131.826 48.7813 131.37 50.4632 130.49 51.9934C129.61 53.5236 128.33 54.8613 126.747 55.9035C125.165 56.9457 123.323 57.6645 121.363 58.0046C119.404 58.3447 117.379 58.2971 115.444 57.8653C113.509 57.4334 111.717 56.629 110.204 55.514C108.692 54.399 107.5 53.003 106.721 51.4338C105.942 49.8645 105.596 48.1638 105.709 46.4625C105.823 44.7613 106.393 43.1051 107.377 41.6213C107.773 41.0184 108.236 40.449 108.758 39.9209C109.62 39.046 110.633 38.2879 111.763 37.6725C113.671 36.6395 115.86 36.0459 118.118 35.9496C120.376 35.8533 122.624 36.2577 124.643 37.1231C126.663 37.9885 128.384 39.2854 129.639 40.8872C130.894 42.4889 131.64 44.3406 131.804 46.2614C131.811 46.5355 131.822 46.8064 131.822 47.0774Z" fill="#EFB7B9"/>
<path d="M125.386 101.202L124.72 119.442L124.603 122.69C124.603 122.69 116.723 122.067 109.369 121.382C103.448 120.831 97.8661 120.236 97.0072 119.887C95.9106 119.448 93.5604 119.109 91.7072 118.894C90.2744 118.729 89.1486 118.642 89.1486 118.642C89.1486 118.642 88.7283 118.748 88.0813 118.847C86.6704 119.065 84.1923 119.243 82.7485 118.175C80.9027 116.807 85.753 111.84 86.9629 110.648L87.2297 110.389L86.7728 106.792L85.5849 97.4651C85.5849 97.4651 84.8539 92.0931 83.7573 89.2125C83.4642 88.3935 83.2526 87.5549 83.125 86.7056C82.7176 84.0746 82.9263 81.4009 83.739 78.8391C84.0863 77.7505 84.3067 76.6354 84.397 75.51C84.5797 72.6294 94.9055 61.4961 97.4641 60.484C98.615 60.0267 99.5412 59.2398 100.081 58.2605C100.259 57.9525 100.393 57.6273 100.48 57.2919C101.576 53.2435 104.35 54.8504 104.35 54.8504C105.019 58.0175 115.374 66.401 115.374 66.401L115.579 66.5754C116.606 67.4723 121.182 71.6827 120.857 75.2764C120.792 76.614 121.026 77.9499 121.548 79.2128C123.654 84.8634 124.865 90.7285 125.148 96.6523L125.386 101.202Z" fill="#DCE6F2"/>
<path d="M115.579 66.5598L108.55 69.1633L100.066 58.2449C100.245 57.9369 100.379 57.6117 100.465 57.2764C101.561 53.2279 104.336 54.8348 104.336 54.8348C105.005 58.002 115.36 66.3854 115.36 66.3854L115.579 66.5598Z" fill="#DCE6F2"/>
<path d="M105.67 41.9171C105.162 42.6272 104.244 43.1099 103.901 43.8884C103.396 45.0189 104.248 46.4265 103.466 47.4355C103.206 47.7749 102.779 48.0272 102.632 48.4165C102.384 49.0736 103.064 49.7743 102.888 50.45C102.713 51.1258 101.667 51.6957 101.945 52.3559C102.109 52.6439 102.397 52.8669 102.749 52.9788C103.303 53.2495 103.941 53.37 104.577 53.3244C105.575 53.1843 106.317 52.3497 107.329 52.2874C108.152 52.2376 108.937 52.7234 109.756 52.6331C109.893 52.629 110.024 52.5812 110.122 52.4992C110.184 52.4298 110.225 52.3486 110.242 52.2625C110.856 50.176 111.393 48.0749 111.851 45.9594C111.944 45.3683 112.128 44.7903 112.399 44.2403C112.536 43.966 112.735 43.7177 112.987 43.5102C113.238 43.3027 113.535 43.1401 113.861 43.032C114.837 42.7642 115.933 43.2189 116.558 43.9133C117.183 44.6078 117.421 45.4953 117.589 46.358C117.757 47.2206 117.863 48.1082 118.276 48.9085C118.402 49.2053 118.635 49.4605 118.942 49.6372C119.49 49.9082 120.228 49.6933 120.649 49.2884C121.034 48.8552 121.285 48.3466 121.38 47.8092C121.475 47.2738 121.684 46.7577 121.997 46.2864C122.575 45.5514 123.631 45.2182 124.64 45.0095C125.649 44.8009 126.712 44.6545 127.564 44.1407C128.233 43.6809 128.779 43.1043 129.165 42.4497C129.706 41.6462 130.21 40.7742 130.166 39.8493C130.119 38.8403 129.417 37.9403 128.668 37.1555C127.206 35.6296 125.228 34.2375 122.915 34.1846C122.02 34.2165 121.127 34.2934 120.243 34.415C118.973 34.4637 117.7 34.422 116.438 34.2905C116.131 34.2592 115.82 34.2686 115.517 34.3185C115.162 34.4109 114.832 34.5634 114.548 34.7669C113.493 35.4365 112.535 36.21 111.693 37.0714C111.151 37.6844 110.562 38.267 109.932 38.8154C109.518 39.1665 109.019 39.4355 108.47 39.6033C108.104 39.6905 107.739 39.6282 107.391 39.7247C106.313 40.0143 106.171 41.2133 105.67 41.9171Z" fill="#965D7B"/>
<path d="M120.97 108.166L149.115 104.263V126.966L122.374 125.773L120.97 108.166Z" fill="#7269FF"/>
<path d="M149.115 104.263L182.866 106.415L180.998 126.172L149.115 126.966V104.263Z" fill="#7269FF"/>
<path d="M159.492 97.3343L149.115 104.263L182.866 106.415L188.382 99.3243L159.492 97.3343Z" fill="#7269FF"/>
<path d="M110.78 100.598L136.117 97.9696L149.115 104.263L120.97 108.166L110.78 100.598Z" fill="#7269FF"/>
<path d="M155.285 110.159V141.198L142.1 140.046L136.366 139.547L134.618 139.392L128.887 138.89L120.97 138.199V108.166L149.111 109.797L155.285 110.159Z" fill="#7269FF"/>
<path d="M182.866 106.415V136.685L172.299 138.414L167.16 139.255L155.285 141.198V110.159L182.866 106.415Z" fill="#7269FF"/>
<path d="M110.78 114.699L120.97 108.166L155.285 110.159L150.233 117.408L110.78 114.699Z" fill="#7269FF"/>
<path d="M182.866 106.415L155.285 110.159L164.262 117.01L193.806 112.787L182.866 106.415Z" fill="#7269FF"/>
<path d="M151.469 132.874C147.539 137.156 134.564 134.197 134.564 134.197L124.921 125.627L123.613 124.465L126.171 120.417C126.171 120.417 126.902 120.622 128.123 120.984C134.586 122.908 154.776 129.27 151.469 132.874Z" fill="#EFB7B9"/>
<path d="M96.1847 72.5515C96.1847 72.5515 86.59 75.6657 86.4987 84.3855C86.4768 90.0045 86.843 95.6198 87.5952 101.202C87.5952 101.202 84.8538 114.204 92.621 117.941C100.388 121.678 107.607 124.792 107.607 124.792C107.607 124.792 120.016 126.505 121.54 127.05C123.065 127.595 128.361 120.588 127.538 119.42C126.716 118.252 115.418 115.372 114.077 113.425C112.735 111.479 109.431 110.168 109.431 110.168C109.431 110.168 106.061 108.209 105.926 106.574C105.79 104.939 106.785 103.771 107.066 103.071C107.348 102.37 108.367 95.5187 108.367 95.5187C108.367 95.5187 113.821 71.2124 96.1847 72.5515Z" fill="#DCE6F2"/>
<path d="M238.961 35.0005C238.961 35.0005 225.072 34.2873 226.695 42.5898C226.695 42.5898 226.37 44.0566 227.93 44.723C227.93 44.723 227.956 44.1002 229.356 44.3151C229.854 44.3866 230.361 44.4075 230.865 44.3774C231.549 44.3385 232.198 44.1099 232.715 43.7265V43.7265C232.715 43.7265 236.622 42.3531 238.143 36.9095C238.143 36.9095 239.269 35.7199 239.239 35.4147L236.893 36.2711C236.893 36.2711 237.693 37.713 237.061 38.9119C237.061 38.9119 236.988 36.324 236.534 36.3832C236.443 36.3832 235.317 36.8846 235.317 36.8846C235.317 36.8846 236.695 39.3946 235.654 41.2227C235.654 41.2227 236.048 38.1272 234.886 37.0652L233.234 37.8874C233.234 37.8874 234.846 40.4815 233.753 42.5991C233.753 42.5991 234.034 39.351 232.887 38.0867L231.388 39.0801C231.388 39.0801 232.905 41.64 231.98 43.3964C231.98 43.3964 231.86 39.6157 231.063 39.3292C231.063 39.3292 229.754 40.3133 229.557 40.7182C229.557 40.7182 230.591 42.5867 229.948 43.5552C229.948 43.5552 229.553 41.0358 229.217 41.0234C229.217 41.0234 227.912 42.6926 227.777 43.8261C227.84 42.7693 228.227 41.7451 228.899 40.8552C228.147 40.9764 227.453 41.2828 226.903 41.7365C226.903 41.7365 227.104 40.5562 229.221 40.4535C229.221 40.4535 230.317 39.186 230.588 39.1081C230.588 39.1081 228.482 38.9586 227.207 39.4413C227.207 39.4413 228.329 38.3296 230.975 38.8185L232.437 37.7908C232.437 37.7908 229.666 37.4794 228.49 37.8251C228.49 37.8251 229.842 36.841 232.835 37.5573L234.444 36.7382C234.444 36.7382 232.083 36.3022 230.675 36.4611C230.675 36.4611 232.159 35.779 234.915 36.5171L236.067 36.078C236.067 36.078 234.334 35.7884 233.83 35.7417C233.325 35.695 233.296 35.5766 233.296 35.5766C234.392 35.4212 235.517 35.529 236.545 35.888C236.545 35.888 239.013 35.1313 238.961 35.0005Z" fill="#6C63FF"/>
<path opacity="0.1" d="M281.164 76.5252C281.164 76.5252 267.274 75.8121 268.897 84.1145C268.897 84.1145 268.572 85.5813 270.132 86.2478C270.132 86.2478 270.158 85.6249 271.562 85.8398C272.06 85.9113 272.567 85.9322 273.071 85.9021C273.747 85.8604 274.388 85.6331 274.899 85.2543V85.2543C274.899 85.2543 278.81 83.8779 280.33 78.4342C280.33 78.4342 281.452 77.2477 281.408 76.9425L279.062 77.7958C279.062 77.7958 279.862 79.2377 279.234 80.4367C279.234 80.4367 279.157 77.8488 278.707 77.9079C278.616 77.9079 277.486 78.4093 277.486 78.4093C277.486 78.4093 278.868 80.9225 277.826 82.7474C277.826 82.7474 278.221 79.6519 277.055 78.59L275.421 79.4028C275.421 79.4028 277.033 81.9969 275.94 84.1145C275.94 84.1145 276.222 80.8664 275.074 79.6021L273.579 80.5986C273.579 80.5986 275.092 83.1554 274.171 84.9118C274.171 84.9118 274.051 81.1311 273.254 80.8446C273.254 80.8446 271.945 81.8287 271.744 82.2336C271.744 82.2336 272.782 84.1021 272.139 85.0706C272.139 85.0706 271.744 82.5512 271.408 82.5388C271.408 82.5388 270.103 84.208 269.968 85.3415C270.033 84.2846 270.421 83.2605 271.094 82.3706C270.341 82.4921 269.646 82.7984 269.094 83.2519C269.094 83.2519 269.299 82.0716 271.415 81.9689C271.415 81.9689 272.494 80.7014 272.782 80.6235C272.782 80.6235 270.677 80.474 269.401 80.9567C269.401 80.9567 270.523 79.845 273.166 80.3495L274.628 79.3218C274.628 79.3218 271.854 79.0104 270.681 79.356C270.681 79.356 272.033 78.372 275.027 79.0882L276.635 78.2692C276.635 78.2692 274.27 77.8363 272.863 77.992C272.863 77.992 274.35 77.31 277.106 78.0481L278.258 77.609C278.258 77.609 276.525 77.3194 276.017 77.2726C275.509 77.2259 275.483 77.1076 275.483 77.1076C276.581 76.9521 277.707 77.0599 278.737 77.419C278.737 77.419 281.207 76.656 281.164 76.5252Z" fill="#6C63FF"/>
<path opacity="0.1" d="M196.785 69.1539C196.785 69.1539 199.983 57.6034 190.1 57.5629C190.1 57.5629 188.459 57.0397 187.424 58.2355C187.424 58.2355 188.13 58.3632 187.651 59.503C187.485 59.9061 187.375 60.3241 187.322 60.7487C187.251 61.3276 187.404 61.9103 187.757 62.4086V62.4086C187.757 62.4086 188.681 65.9276 194.701 68.1325C194.701 68.1325 195.886 69.2785 196.244 69.2909L195.659 67.1764C195.659 67.1764 193.854 67.603 192.574 66.865C192.574 66.865 195.582 67.2418 195.586 66.865C195.586 66.7871 195.221 65.7563 195.221 65.7563C195.221 65.7563 192.081 66.485 190.144 65.2985C190.144 65.2985 193.656 66.1581 195.085 65.3639L194.427 63.8318C194.427 63.8318 191.138 64.7442 188.886 63.4643C188.886 63.4643 192.596 64.2553 194.256 63.5079L193.36 62.0816C193.36 62.0816 190.144 62.9162 188.268 61.8418C188.268 61.8418 192.655 62.3837 193.13 61.767C193.13 61.767 192.216 60.4996 191.781 60.2629C191.781 60.2629 189.456 60.8172 188.433 60.1103C188.433 60.1103 191.412 60.2068 191.481 59.939C191.481 59.939 189.774 58.5594 188.473 58.248C189.686 58.4832 190.806 58.9834 191.723 59.6992C191.709 59.0465 191.473 58.4113 191.043 57.8712C191.043 57.8712 192.373 58.2449 192.139 60.0511C192.139 60.0511 193.419 61.1722 193.459 61.4276C193.459 61.4276 193.989 59.6868 193.649 58.5314C193.649 58.5314 194.745 59.665 193.711 61.7982L194.647 63.2151C194.647 63.2151 195.495 60.9418 195.279 59.8954C195.279 59.8954 196.189 61.1971 194.848 63.5888L195.524 65.0805C195.524 65.0805 196.427 63.1684 196.485 61.9663C196.485 61.9663 197.023 63.3304 195.696 65.5197L196.01 66.5598C196.01 66.5598 196.639 65.1553 196.778 64.738C196.917 64.3207 197.059 64.3176 197.059 64.3176C197.053 65.265 196.738 66.1924 196.149 66.9958C196.149 66.9958 196.628 69.1695 196.785 69.1539Z" fill="#6C63FF"/>
<path opacity="0.1" d="M166.367 73.0903C166.367 73.0903 155.211 65.9806 151.224 73.682C151.224 73.682 150.007 74.7564 150.88 76.0425C150.88 76.0425 151.297 75.5412 152.342 76.3726C152.712 76.6661 153.122 76.9212 153.563 77.1325C154.16 77.4157 154.849 77.5251 155.526 77.4439V77.4439C155.526 77.4439 159.678 78.1259 164.459 74.2924C164.459 74.2924 166.166 73.8252 166.327 73.5512L163.808 73.1744C163.808 73.1744 163.545 74.7533 162.248 75.4602C162.248 75.4602 163.852 73.2616 163.436 73.1027C163.351 73.0685 162.094 72.947 162.094 72.947C162.094 72.947 161.626 75.6938 159.579 76.7308C159.579 76.7308 161.908 74.3297 161.619 72.8972L159.707 72.81C159.707 72.81 159.382 75.7342 157.101 76.9924C157.101 76.9924 159.429 74.4107 159.294 72.8162L157.401 72.947C157.401 72.947 157.017 75.7903 155.113 76.8242C155.113 76.8242 157.448 73.6104 156.97 73C156.97 73 155.241 73.2086 154.813 73.4515C154.813 73.4515 154.48 75.4882 153.311 76.0052C153.311 76.0052 154.608 73.7162 154.345 73.5574C154.345 73.5574 152.178 74.3391 151.326 75.2297C152.063 74.377 153.048 73.7028 154.184 73.274C153.477 73.0236 152.7 72.9544 151.947 73.0747C151.947 73.0747 152.876 72.184 154.711 73.0903C154.711 73.0903 156.429 72.5391 156.721 72.6076C156.721 72.6076 155.058 71.4958 153.68 71.3027C153.68 71.3027 155.339 70.8979 157.222 72.5484L159.119 72.3834C159.119 72.3834 157.01 70.8263 155.8 70.5647C155.8 70.5647 157.565 70.3747 159.601 72.374L161.473 72.4456C161.473 72.4456 159.78 70.9757 158.505 70.4463C158.505 70.4463 160.182 70.5709 162.01 72.4799L163.256 72.6512C163.256 72.6512 161.995 71.5986 161.601 71.3245C161.206 71.0505 161.261 70.9352 161.261 70.9352C162.278 71.3189 163.149 71.9356 163.779 72.7166C163.779 72.7166 166.319 73.218 166.367 73.0903Z" fill="#6C63FF"/>
<path opacity="0.1" d="M203.507 7.03498C203.507 7.03498 192.351 -0.0778532 188.363 7.62668C188.363 7.62668 187.146 8.70108 188.02 9.98724C188.02 9.98724 188.437 9.48586 189.482 10.3173C189.854 10.6093 190.265 10.8633 190.706 11.0741C191.303 11.3575 191.993 11.4669 192.669 11.3855V11.3855C192.669 11.3855 196.821 12.0675 201.602 8.23083C201.602 8.23083 203.309 7.76682 203.467 7.48965L200.948 7.11906C200.948 7.11906 200.689 8.69796 199.387 9.40489C199.387 9.40489 200.996 7.20626 200.579 7.04744C200.495 7.01318 199.238 6.89173 199.238 6.89173C199.238 6.89173 198.755 9.64468 196.708 10.6755C196.708 10.6755 199.033 8.27443 198.748 6.8419L196.836 6.7547C196.836 6.7547 196.507 9.67894 194.23 10.934C194.23 10.934 196.558 8.35229 196.423 6.75782L194.533 6.88861C194.533 6.88861 194.146 9.73499 192.242 10.7689C192.242 10.7689 194.581 7.55505 194.102 6.94467C194.102 6.94467 192.373 7.15332 191.946 7.39623C191.946 7.39623 191.613 9.43292 190.443 9.94987C190.443 9.94987 191.741 7.66093 191.478 7.499C191.478 7.499 189.31 8.28377 188.459 9.17444C189.194 8.32074 190.18 7.64639 191.317 7.21872C190.609 6.96648 189.83 6.89717 189.076 7.01941C189.076 7.01941 190.008 6.12875 191.843 7.03498C191.843 7.03498 193.561 6.48065 193.854 6.55228C193.854 6.55228 192.19 5.44051 190.812 5.24432C190.812 5.24432 192.468 4.84258 194.351 6.49L196.248 6.32494C196.248 6.32494 194.142 4.76784 192.929 4.50314C192.929 4.50314 194.694 4.31628 196.734 6.3156L198.605 6.38411C198.605 6.38411 196.913 4.91421 195.634 4.38791C195.634 4.38791 197.315 4.51248 199.142 6.42148L200.385 6.59276C200.385 6.59276 199.121 5.55262 198.726 5.2848C198.331 5.01698 198.386 4.89864 198.386 4.89864C199.403 5.28187 200.275 5.89864 200.904 6.67996C200.904 6.67996 203.445 7.15332 203.507 7.03498Z" fill="#6C63FF"/>
<path opacity="0.1" d="M246.133 16.0444C246.133 16.0444 241.674 4.79898 233.263 9.21803C233.263 9.21803 231.545 9.52945 231.41 10.9962C231.41 10.9962 232.086 10.7845 232.386 11.9679C232.497 12.3888 232.665 12.7974 232.887 13.1855C233.189 13.7078 233.681 14.1328 234.29 14.3969V14.3969C234.29 14.3969 237.258 16.9662 243.75 16.116C243.75 16.116 245.464 16.5582 245.778 16.4056L243.951 14.8765C243.951 14.8765 242.686 16.0506 241.144 16.0039C241.144 16.0039 243.932 14.97 243.702 14.6367C243.655 14.5713 242.701 13.8644 242.701 13.8644C242.701 13.8644 240.486 15.898 238.11 15.7641C238.11 15.7641 241.622 14.9108 242.339 13.5841L240.826 12.5907C240.826 12.5907 238.611 14.8392 235.895 14.7707C235.895 14.7707 239.55 13.771 240.475 12.3883L238.83 11.5817C238.83 11.5817 236.637 13.7399 234.363 13.6713C234.363 13.6713 238.428 12.1547 238.439 11.4198C238.439 11.4198 236.878 10.7564 236.363 10.7502C236.363 10.7502 234.732 12.2668 233.439 12.1298C233.439 12.1298 236.026 10.8686 235.917 10.6101C235.917 10.6101 233.614 10.2083 232.316 10.5322C233.49 10.1841 234.75 10.1036 235.972 10.2987C235.554 9.75024 234.959 9.31735 234.257 9.05298C234.257 9.05298 235.617 8.76958 236.527 10.4014C236.527 10.4014 238.311 10.7782 238.501 10.9744C238.501 10.9744 237.872 9.25851 236.867 8.43014C236.867 8.43014 238.501 8.90038 238.947 11.1769L240.621 11.9554C240.621 11.9554 239.93 9.64779 239.097 8.84121C239.097 8.84121 240.679 9.53879 241.023 12.1703L242.522 13.1326C242.522 13.1326 242.105 11.1021 241.403 10.0495C241.403 10.0495 242.704 10.9651 242.938 13.4222L243.848 14.1634C243.848 14.1634 243.512 12.6872 243.373 12.2699C243.234 11.8526 243.348 11.8246 243.348 11.8246C243.929 12.6325 244.236 13.5616 244.236 14.5091C244.236 14.5091 246.005 16.1253 246.133 16.0444Z" fill="#6C63FF"/>
<path opacity="0.1" d="M217.031 16.5987C217.031 16.5987 203.178 15.2845 204.322 23.6586C204.322 23.6586 203.909 25.1098 205.418 25.8385C205.418 25.8385 205.48 25.2157 206.88 25.496C207.375 25.5867 207.88 25.6295 208.386 25.6236C209.07 25.6131 209.731 25.413 210.269 25.0537V25.0537C210.269 25.0537 214.256 23.8485 216.117 18.4766C216.117 18.4766 217.308 17.3399 217.283 17.0316L214.889 17.7852C214.889 17.7852 215.62 19.2582 214.889 20.4292C214.889 20.4292 214.966 17.8413 214.523 17.8817C214.432 17.8817 213.277 18.3302 213.277 18.3302C213.277 18.3302 214.505 20.8994 213.357 22.6901C213.357 22.6901 213.935 19.6132 212.835 18.5046L211.135 19.252C211.135 19.252 212.597 21.9146 211.373 23.9825C211.373 23.9825 211.848 20.7499 210.777 19.4388L209.223 20.3731C209.223 20.3731 210.583 22.9921 209.556 24.7081C209.556 24.7081 209.662 20.9274 208.883 20.6067C208.883 20.6067 207.516 21.5409 207.293 21.9271C207.293 21.9271 208.218 23.8267 207.52 24.7766C207.52 24.7766 207.275 22.2447 206.953 22.2198C206.953 22.2198 205.55 23.8299 205.345 24.9665C205.472 23.9127 205.921 22.9056 206.646 22.0454C205.888 22.1347 205.177 22.4107 204.6 22.8395C204.6 22.8395 204.87 21.6717 206.99 21.6593C206.99 21.6593 208.141 20.4416 208.452 20.3762C208.452 20.3762 206.358 20.1364 205.053 20.5631C205.053 20.5631 206.241 19.498 208.85 20.1177L210.389 19.1554C210.389 19.1554 207.608 18.6759 206.431 18.9873C206.431 18.9873 207.842 18.053 210.788 18.9094L212.443 18.1589C212.443 18.1589 210.108 17.6233 208.693 17.7198C208.693 17.7198 210.218 17.097 212.926 17.9596L214.103 17.5703C214.103 17.5703 212.389 17.206 211.884 17.1374C211.38 17.0689 211.362 16.9506 211.362 16.9506C212.467 16.8426 213.585 16.9978 214.593 17.399C214.593 17.399 217.056 16.7295 217.031 16.5987Z" fill="#6C63FF"/>
<path opacity="0.1" d="M338.235 108.209C338.235 108.209 324.389 106.895 325.533 115.26C325.533 115.26 325.12 116.711 326.63 117.44C326.63 117.44 326.692 116.817 328.092 117.094C328.586 117.188 329.092 117.231 329.598 117.222C330.282 117.213 330.943 117.012 331.48 116.652V116.652C331.48 116.652 335.468 115.447 337.31 110.078C337.31 110.078 338.502 108.938 338.476 108.633L336.082 109.383C336.082 109.383 336.813 110.859 336.082 112.03C336.082 112.03 336.159 109.439 335.716 109.483C335.625 109.483 334.47 109.928 334.47 109.928C334.47 109.928 335.698 112.497 334.55 114.288C334.55 114.288 335.128 111.214 334.028 110.103L332.328 110.853C332.328 110.853 333.79 113.516 332.569 115.584C332.569 115.584 333.041 112.351 331.97 111.037L330.416 111.971C330.416 111.971 331.776 114.59 330.749 116.303C330.749 116.303 330.855 112.522 330.077 112.205C330.077 112.205 328.713 113.139 328.487 113.525C328.487 113.525 329.415 115.425 328.713 116.375C328.713 116.375 328.468 113.843 328.147 113.818C328.147 113.818 326.743 115.428 326.538 116.565C326.665 115.511 327.114 114.504 327.84 113.643C327.081 113.731 326.369 114.007 325.793 114.438C325.793 114.438 326.063 113.267 328.183 113.254C328.183 113.254 329.338 112.036 329.645 111.974C329.645 111.974 327.551 111.731 326.246 112.158C326.246 112.158 327.434 111.096 330.047 111.716L331.582 110.753C331.582 110.753 328.834 110.311 327.639 110.616C327.639 110.616 329.049 109.682 331.996 110.535L333.651 109.788C333.651 109.788 331.316 109.252 329.901 109.349C329.901 109.349 331.425 108.726 334.134 109.589L335.311 109.196C335.311 109.196 333.596 108.832 333.092 108.767C332.588 108.701 332.569 108.58 332.569 108.58C333.674 108.47 334.793 108.624 335.8 109.025C335.8 109.025 338.271 108.343 338.235 108.209Z" fill="#6C63FF"/>
<path opacity="0.1" d="M359.402 119.227C359.402 119.227 345.556 117.916 346.7 126.278C346.7 126.278 346.291 127.729 347.797 128.458C347.797 128.458 347.859 127.835 349.259 128.115C349.752 128.207 350.256 128.248 350.761 128.24C351.441 128.228 352.099 128.029 352.636 127.673V127.673C352.636 127.673 356.62 126.468 358.462 121.096C358.462 121.096 359.657 119.959 359.628 119.651L357.234 120.401C357.234 120.401 357.965 121.877 357.234 123.048C357.234 123.048 357.311 120.46 356.869 120.501C356.777 120.501 355.622 120.946 355.622 120.946C355.622 120.946 356.85 123.515 355.703 125.306C355.703 125.306 356.28 122.232 355.18 121.124L353.48 121.871C353.48 121.871 354.942 124.534 353.722 126.602C353.722 126.602 354.193 123.369 353.122 122.058L351.569 122.992C351.569 122.992 352.928 125.611 351.905 127.327C351.905 127.327 352.007 123.543 351.229 123.226C351.229 123.226 349.865 124.16 349.639 124.546C349.639 124.546 350.567 126.446 349.865 127.396C349.865 127.396 349.62 124.864 349.299 124.839C349.299 124.839 347.895 126.449 347.694 127.586C347.821 126.532 348.268 125.525 348.992 124.665C348.233 124.754 347.522 125.03 346.945 125.459C346.945 125.459 347.219 124.288 349.339 124.278C349.339 124.278 350.49 123.061 350.801 122.995C350.801 122.995 348.707 122.756 347.402 123.182C347.402 123.182 348.59 122.117 351.203 122.737L352.738 121.775C352.738 121.775 349.99 121.332 348.794 121.638C348.794 121.638 350.205 120.703 353.151 121.56L354.807 120.809C354.807 120.809 352.472 120.274 351.057 120.37C351.057 120.37 352.581 119.747 355.29 120.61L356.467 120.221C356.467 120.221 354.752 119.856 354.252 119.788C353.751 119.719 353.725 119.601 353.725 119.601C354.83 119.493 355.949 119.648 356.956 120.049C356.956 120.049 359.438 119.361 359.402 119.227Z" fill="#6C63FF"/>
<path opacity="0.1" d="M312.408 26.4209C312.408 26.4209 301.252 19.3111 297.264 27.0126C297.264 27.0126 296.047 28.087 296.921 29.3731C296.921 29.3731 297.338 28.8717 298.383 29.7032C298.753 29.9967 299.163 30.2518 299.604 30.4631C300.201 30.7461 300.89 30.8554 301.567 30.7745V30.7745C301.567 30.7745 305.719 31.4565 310.503 27.6229C310.503 27.6229 312.207 27.1558 312.367 26.8818L309.856 26.4956C309.856 26.4956 309.593 28.0745 308.296 28.7814C308.296 28.7814 309.9 26.5828 309.484 26.424C309.399 26.3897 308.146 26.2683 308.146 26.2683C308.146 26.2683 307.674 29.015 305.627 30.052C305.627 30.052 307.956 27.651 307.667 26.2184L305.755 26.1312C305.755 26.1312 305.43 29.0555 303.149 30.3136C303.149 30.3136 305.481 27.7319 305.342 26.1375L303.449 26.2683C303.449 26.2683 303.083 29.1115 301.161 30.1455C301.161 30.1455 303.5 26.9316 303.018 26.3212C303.018 26.3212 301.289 26.5299 300.861 26.7728C300.861 26.7728 300.532 28.8095 299.362 29.3264C299.362 29.3264 300.656 27.0375 300.393 26.8787C300.393 26.8787 298.226 27.6603 297.374 28.551C298.111 27.6982 299.096 27.0241 300.232 26.5953C299.525 26.3449 298.748 26.2756 297.995 26.396C297.995 26.396 298.928 25.5053 300.762 26.4115C300.762 26.4115 302.477 25.8603 302.769 25.9288C302.769 25.9288 301.106 24.8171 299.728 24.624C299.728 24.624 301.387 24.2191 303.27 25.8697L305.167 25.7046C305.167 25.7046 303.061 24.1475 301.848 23.8859C301.848 23.8859 303.613 23.6959 305.649 25.6953L307.524 25.7669C307.524 25.7669 305.828 24.297 304.553 23.7676C304.553 23.7676 306.234 23.8921 308.058 25.8011L309.304 25.9724C309.304 25.9724 308.043 24.9198 307.649 24.6458C307.254 24.3717 307.312 24.2814 307.312 24.2814C308.328 24.6657 309.198 25.2823 309.827 26.0627C309.827 26.0627 312.36 26.5485 312.408 26.4209Z" fill="#6C63FF"/>
<path opacity="0.1" d="M321.026 77.7491C321.026 77.7491 317.181 66.3418 308.533 70.437C308.533 70.437 306.801 70.6643 306.585 72.1404C306.585 72.1404 307.272 71.9567 307.51 73.1495C307.598 73.578 307.745 73.9961 307.948 74.3951C308.219 74.9318 308.689 75.378 309.286 75.6657V75.6657C309.286 75.6657 312.115 78.3439 318.643 77.746C318.643 77.746 320.332 78.2505 320.654 78.1135L318.925 76.5128C318.925 76.5128 317.598 77.6401 316.063 77.5342C316.063 77.5342 318.899 76.6 318.68 76.2668C318.636 76.1982 317.722 75.454 317.722 75.454C317.722 75.454 315.405 77.4034 313.036 77.1761C313.036 77.1761 316.593 76.4598 317.375 75.1706L315.913 74.118C315.913 74.118 313.581 76.2792 310.872 76.111C310.872 76.111 314.557 75.2484 315.573 73.9062L313.972 73.0373C313.972 73.0373 311.651 75.1083 309.399 74.9526C309.399 74.9526 313.541 73.5917 313.592 72.8598C313.592 72.8598 312.064 72.1373 311.549 72.1124C311.549 72.1124 309.842 73.5636 308.544 73.3768C308.544 73.3768 311.198 72.2152 311.103 71.9536C311.103 71.9536 308.822 71.4647 307.51 71.7356C308.698 71.4353 309.958 71.4042 311.165 71.6453C310.778 71.0818 310.207 70.6271 309.52 70.3373C309.52 70.3373 310.894 70.1038 311.713 71.7699C311.713 71.7699 313.471 72.2121 313.654 72.4176C313.654 72.4176 313.117 70.6768 312.155 69.8141C312.155 69.8141 313.764 70.3436 314.089 72.6356L315.719 73.4796C315.719 73.4796 315.149 71.1439 314.359 70.3218C314.359 70.3218 315.902 71.0785 316.11 73.7193L317.572 74.7377C317.572 74.7377 317.262 72.6948 316.618 71.6235C316.618 71.6235 317.872 72.5889 317.974 75.0491L318.844 75.8277C318.844 75.8277 318.588 74.3391 318.479 73.9155C318.369 73.492 318.479 73.4328 318.479 73.4328C319.02 74.2612 319.279 75.2015 319.228 76.1484C319.228 76.1484 320.895 77.8239 321.026 77.7491Z" fill="#6C63FF"/>
<path opacity="0.1" d="M235.343 103.454C235.343 103.454 227.875 93.4323 220.942 99.4302C220.942 99.4302 219.355 100.053 219.633 101.532C219.633 101.532 220.236 101.19 220.858 102.28C221.081 102.666 221.358 103.028 221.684 103.357C222.119 103.807 222.717 104.122 223.383 104.254V104.254C223.383 104.254 226.984 106.147 233.051 104.005C233.051 104.005 234.838 104.086 235.102 103.877L232.909 102.756C232.909 102.756 232.006 104.158 230.496 104.422C230.496 104.422 232.916 102.865 232.591 102.579C232.528 102.523 231.403 102.031 231.403 102.031C231.403 102.031 229.82 104.453 227.473 104.805C227.473 104.805 230.65 103.264 230.979 101.837L229.228 101.18C229.228 101.18 227.704 103.812 225.05 104.295C225.05 104.295 228.303 102.585 228.833 101.053L227.006 100.604C227.006 100.604 225.463 103.149 223.252 103.538C223.252 103.538 226.775 101.24 226.582 100.523C226.582 100.523 224.878 100.196 224.388 100.296C224.388 100.296 223.23 102.099 221.921 102.23C221.921 102.23 224.085 100.48 223.906 100.249C223.906 100.249 221.556 100.327 220.386 100.903C221.429 100.327 222.632 99.9944 223.873 99.9378C223.317 99.4896 222.62 99.1898 221.866 99.0752C221.866 99.0752 223.105 98.5239 224.425 99.9253C224.425 99.9253 226.253 99.9253 226.505 100.081C226.505 100.081 225.408 98.524 224.206 97.9416C224.206 97.9416 225.924 98.0662 226.991 100.187L228.837 100.604C228.837 100.604 227.517 98.5021 226.49 97.9011C226.49 97.9011 228.219 98.2561 229.29 100.744L231.015 101.367C231.015 101.367 230.043 99.4831 229.067 98.6018C229.067 98.6018 230.588 99.2246 231.498 101.563L232.594 102.102C232.594 102.102 231.863 100.735 231.604 100.358C231.344 99.9814 231.447 99.8942 231.447 99.8942C232.237 100.56 232.796 101.4 233.058 102.32C233.058 102.32 235.244 103.56 235.343 103.454Z" fill="#6C63FF"/>
<path d="M284.42 52.2501C284.42 52.2501 277.318 42.0386 270.165 47.8497C270.165 47.8497 268.557 48.4414 268.784 49.9175C268.784 49.9175 269.394 49.5874 269.979 50.693C270.188 51.0859 270.452 51.4561 270.765 51.7954C271.184 52.2546 271.77 52.583 272.431 52.7296V52.7296C272.431 52.7296 275.959 54.7165 282.103 52.7296C282.103 52.7296 283.887 52.8573 284.157 52.6549L282.012 51.4777C282.012 51.4777 281.061 52.8511 279.541 53.0784C279.541 53.0784 282.015 51.5743 281.705 51.2909C281.639 51.2317 280.535 50.7085 280.535 50.7085C280.535 50.7085 278.864 53.0909 276.514 53.3805C276.514 53.3805 279.745 51.9231 280.122 50.5092L278.397 49.8179C278.397 49.8179 276.777 52.412 274.106 52.8262C274.106 52.8262 277.421 51.2037 278.006 49.6871L276.2 49.1888C276.2 49.1888 274.562 51.6802 272.34 52.0227C272.34 52.0227 275.944 49.8179 275.776 49.0985C275.776 49.0985 274.087 48.7248 273.583 48.812C273.583 48.812 272.358 50.584 271.046 50.6805C271.046 50.6805 273.272 48.9926 273.104 48.7559C273.104 48.7559 270.75 48.7715 269.562 49.3165C270.626 48.7696 271.84 48.469 273.082 48.4445C272.542 47.9816 271.854 47.6633 271.105 47.5289C271.105 47.5289 272.366 47.0089 273.663 48.4445C273.663 48.4445 275.491 48.4974 275.736 48.6563C275.736 48.6563 274.701 47.0992 273.517 46.4576C273.517 46.4576 275.228 46.6258 276.218 48.7746L278.046 49.2417C278.046 49.2417 276.807 47.1054 275.798 46.4763C275.798 46.4763 277.516 46.8781 278.495 49.3912L280.195 50.067C280.195 50.067 279.292 48.158 278.367 47.2642C278.367 47.2642 279.862 47.9275 280.692 50.2881L281.763 50.8549C281.763 50.8549 281.076 49.4691 280.835 49.086C280.593 48.703 280.696 48.6189 280.696 48.6189C281.462 49.305 281.99 50.1589 282.22 51.0853C282.22 51.0853 284.314 52.3528 284.42 52.2501Z" fill="#6C63FF"/>
<path d="M239.488 73.7225C239.488 73.7225 239.853 61.8574 230.178 63.5297C230.178 63.5297 228.446 63.3023 227.715 64.6539C227.715 64.6539 228.446 64.6539 228.241 65.8529C228.174 66.2804 228.167 66.7132 228.219 67.1422C228.285 67.724 228.574 68.2712 229.041 68.6993C229.041 68.6993 230.785 71.9816 237.222 73.0965C237.222 73.0965 238.651 74.0152 239.009 73.9654L237.912 71.9972C237.912 71.9972 236.249 72.7259 234.82 72.2307C234.82 72.2307 237.854 72.0782 237.77 71.6982C237.77 71.6204 237.141 70.6737 237.141 70.6737C237.141 70.6737 234.239 71.9349 232.064 71.1065C232.064 71.1065 235.719 71.3401 236.915 70.3155L235.895 68.9359C235.895 68.9359 232.905 70.3934 230.383 69.5339C230.383 69.5339 234.202 69.6646 235.65 68.6463L234.433 67.4006C234.433 67.4006 231.483 68.7771 229.392 68.0484C229.392 68.0484 233.822 67.821 234.144 67.1328C234.144 67.1328 232.945 66.0522 232.463 65.8871C232.463 65.8871 230.321 66.8214 229.151 66.3169C229.151 66.3169 232.075 65.8996 232.093 65.6224C232.093 65.6224 230.094 64.5667 228.745 64.4888C229.989 64.5078 231.205 64.8042 232.273 65.3484C232.106 64.7118 231.725 64.1306 231.176 63.676C231.176 63.676 232.569 63.81 232.759 65.6069C232.759 65.6069 234.283 66.4851 234.382 66.728C234.382 66.728 234.488 64.9311 233.877 63.8598C233.877 63.8598 235.222 64.7785 234.718 67.0456L235.972 68.2726C235.972 68.2726 236.257 65.8996 235.8 64.9124C235.8 64.9124 236.999 66.0304 236.26 68.6027L237.273 69.9449C237.273 69.9449 237.704 67.9176 237.474 66.7249C237.474 66.7249 238.322 67.9705 237.547 70.3404L238.103 71.3058C238.103 71.3058 238.384 69.8204 238.42 69.3875C238.457 68.9546 238.596 68.9266 238.596 68.9266C238.816 69.8556 238.729 70.8184 238.344 71.7076C238.344 71.7076 239.327 73.7629 239.488 73.7225Z" fill="#6C63FF"/>
<path opacity="0.1" d="M255.483 224.487C260.919 224.487 265.326 223.853 265.326 223.07C265.326 222.288 260.919 221.653 255.483 221.653C250.046 221.653 245.639 222.288 245.639 223.07C245.639 223.853 250.046 224.487 255.483 224.487Z" fill="#6C63FF"/>
<path opacity="0.1" d="M219.6 246C225.037 246 229.443 245.366 229.443 244.583C229.443 243.8 225.037 243.166 219.6 243.166C214.164 243.166 209.757 243.8 209.757 244.583C209.757 245.366 214.164 246 219.6 246Z" fill="#6C63FF"/>
<path opacity="0.1" d="M34.0439 234.979C39.4802 234.979 43.8872 234.344 43.8872 233.562C43.8872 232.779 39.4802 232.145 34.0439 232.145C28.6076 232.145 24.2006 232.779 24.2006 233.562C24.2006 234.344 28.6076 234.979 34.0439 234.979Z" fill="#6C63FF"/>
<path opacity="0.1" d="M294.26 244.583C299.696 244.583 304.103 243.949 304.103 243.166C304.103 242.384 299.696 241.749 294.26 241.749C288.824 241.749 284.417 242.384 284.417 243.166C284.417 243.949 288.824 244.583 294.26 244.583Z" fill="#6C63FF"/>
<path d="M304.509 227.305C312.626 227.305 319.206 226.357 319.206 225.188C319.206 224.018 312.626 223.07 304.509 223.07C296.392 223.07 289.812 224.018 289.812 225.188C289.812 226.357 296.392 227.305 304.509 227.305Z" fill="#6C63FF"/>
<path d="M310.602 221.722C311.273 221.257 311.761 220.629 312.002 219.922C312.185 219.205 311.826 218.349 311.026 218.087C310.127 217.795 309.166 218.324 308.435 218.86C307.703 219.395 306.874 220.009 305.92 219.897C306.41 219.518 306.776 219.037 306.983 218.502C307.191 217.967 307.232 217.395 307.104 216.842C307.063 216.613 306.949 216.397 306.775 216.219C306.274 215.764 305.371 215.96 304.772 216.319C302.871 217.458 302.341 219.657 302.33 221.638C302.14 220.924 302.301 220.18 302.298 219.458C302.294 218.735 302.056 217.901 301.329 217.521C300.882 217.309 300.378 217.201 299.867 217.209C299.012 217.184 298.058 217.256 297.476 217.788C296.745 218.449 296.939 219.56 297.568 220.28C298.196 220.999 299.158 221.463 300.042 221.968C300.75 222.328 301.355 222.818 301.811 223.403C301.863 223.485 301.906 223.57 301.939 223.659H307.298C308.497 223.144 309.609 222.492 310.602 221.722V221.722Z" fill="#6C63FF"/>
<path d="M27.4354 226.975C27.4354 226.975 33.046 226.829 34.7457 225.801C36.4453 224.774 43.3827 223.55 43.8031 225.197C44.2234 226.845 52.2391 233.384 45.9011 233.428C39.5631 233.472 31.1746 232.587 29.4859 231.709C27.7973 230.831 27.4354 226.975 27.4354 226.975Z" fill="#A8A8A8"/>
</g>
<defs>
<linearGradient id="paint0_linear" x1="81.5058" y1="134.976" x2="195.593" y2="134.976" gradientUnits="userSpaceOnUse">
<stop stop-color="#808080" stop-opacity="0.25"/>
<stop offset="0.54" stop-color="#808080" stop-opacity="0.12"/>
<stop offset="1" stop-color="#808080" stop-opacity="0.1"/>
</linearGradient>
<clipPath id="clip0">
<rect width="369" height="246" fill="white"/>
</clipPath>
</defs>
</svg>
